<?xml version="1.0" encoding="UTF-8"?>
<svg width="120px" height="120px" viewBox="0 0 120 120" version="1.1" xmlns="http://www.w3.org/2000/svg" xmlns:xlink="http://www.w3.org/1999/xlink">
    <!-- Generator: Sketch 55.2 (78181) - https://sketchapp.com -->
    <title>编组 6备份</title>
    <desc>Created with Sketch.</desc>
    <defs>
        <rect id="path-1" x="0" y="0" width="120" height="120"></rect>
        <linearGradient x1="50%" y1="0%" x2="50%" y2="100%" id="linearGradient-3">
            <stop stop-color="#FFC53D" offset="0%"></stop>
            <stop stop-color="#F78C1C" offset="100%"></stop>
        </linearGradient>
        <linearGradient x1="50%" y1="0%" x2="50%" y2="89.4341484%" id="linearGradient-4">
            <stop stop-color="#2F88FF" stop-opacity="0.3" offset="0%"></stop>
            <stop stop-color="#2F88FF" stop-opacity="0.03" offset="100%"></stop>
        </linearGradient>
        <linearGradient x1="50%" y1="0%" x2="50%" y2="100%" id="linearGradient-5">
            <stop stop-color="#2F88FF" stop-opacity="0.3" offset="0%"></stop>
            <stop stop-color="#2F88FF" stop-opacity="0.05" offset="100%"></stop>
        </linearGradient>
        <rect id="path-6" x="0" y="0" width="44" height="44"></rect>
        <linearGradient x1="0%" y1="15.9269283%" x2="141.053185%" y2="107.841292%" id="linearGradient-8">
            <stop stop-color="#2F88FF" offset="0%"></stop>
            <stop stop-color="#0E4AB3" offset="100%"></stop>
        </linearGradient>
        <linearGradient x1="75.7023128%" y1="52.5148471%" x2="36.2606857%" y2="41.0146381%" id="linearGradient-9">
            <stop stop-color="#1C68D9" offset="0%"></stop>
            <stop stop-color="#2F88FF" offset="100%"></stop>
        </linearGradient>
        <linearGradient x1="50%" y1="0%" x2="50%" y2="89.4341484%" id="linearGradient-10">
            <stop stop-color="#2F88FF" stop-opacity="0.3" offset="0%"></stop>
            <stop stop-color="#2F88FF" stop-opacity="0.03" offset="100%"></stop>
        </linearGradient>
    </defs>
    <g id="创建广告组" stroke="none" stroke-width="1" fill="none" fill-rule="evenodd">
        <g id="选择广告组-默认态备份-6" transform="translate(-654.000000, -372.000000)">
            <g id="编组-6备份" transform="translate(654.000000, 372.000000)">
                <mask id="mask-2" fill="white">
                    <use xlink:href="#path-1"></use>
                </mask>
                <use id="蒙版" fill-opacity="0.01" fill="#FFFFFF" xlink:href="#path-1"></use>
                <g mask="url(#mask-2)">
                    <g transform="translate(29.000000, 19.000000)">
                        <path d="M3,55 C4.65685425,55 6,53.6568542 6,52 C6,50.3431458 4.65685425,49 3,49 C1.34314575,49 0,50.3431458 0,52 C0,53.6568542 1.34314575,55 3,55 Z M3,54 C1.8954305,54 1,53.1045695 1,52 C1,50.8954305 1.8954305,50 3,50 C4.1045695,50 5,50.8954305 5,52 C5,53.1045695 4.1045695,54 3,54 Z" id="椭圆形" fill="url(#linearGradient-3)" opacity="0.6"></path>
                        <path d="M13.875,74.875 L13.875,73.625 C13.875,73.279822 14.154822,73 14.5,73 C14.845178,73 15.125,73.279822 15.125,73.625 L15.125,74.875 L16.375,74.875 C16.720178,74.875 17,75.154822 17,75.5 C17,75.845178 16.720178,76.125 16.375,76.125 L15.125,76.125 L15.125,77.375 C15.125,77.720178 14.845178,78 14.5,78 C14.154822,78 13.875,77.720178 13.875,77.375 L13.875,76.125 L12.625,76.125 C12.279822,76.125 12,75.845178 12,75.5 C12,75.154822 12.279822,74.875 12.625,74.875 L13.875,74.875 Z" id="形状结合" fill-opacity="0.7" fill="url(#linearGradient-4)"></path>
                        <rect id="矩形" fill="url(#linearGradient-5)" transform="translate(37.000000, 39.500000) rotate(-330.000000) translate(-37.000000, -39.500000) " x="20" y="9" width="34" height="61" rx="17"></rect>
                        <g id="campaign-shop" stroke-width="1" fill="none" transform="translate(8.000000, 16.000000)">
                            <mask id="mask-7" fill="white">
                                <use xlink:href="#path-6"></use>
                            </mask>
                            <use id="蒙版" fill="#FFFFFF" opacity="0" xlink:href="#path-6"></use>
                            <polygon id="路径-8" fill="#FFFFFF" mask="url(#mask-7)" points="4.65673828 6.24980469 36.4560303 6.24980469 41.4089844 8.39072266 42.4217041 15.5976562 42.4217041 31.2685185 41.4089844 35.8112305 38.0416667 37.9873291 7.15 37.9873291 3.26460721 36.4638184 2.25478516 33.6993164 2.25478516 10.8658537"></polygon>
                            <g mask="url(#mask-7)">
                                <g transform="translate(0.916667, 4.583333)">
                                    <g id="Group-3" stroke="none" stroke-width="1" fill="none" fill-rule="evenodd">
                                        <path d="M35.6527716,0.0465641467 L6.48730121,0.0465641467 C2.92898639,0.0465641467 0,3.01290378 0,6.61659765 L0,28.2632998 C0,31.8915327 2.90475644,34.8333333 6.48730121,34.8333333 L35.6527716,34.8333333 C39.2110865,34.8333333 42.1398955,31.8669937 42.1398955,28.2632998 L42.1398955,6.61659765 C42.1398955,2.98836483 39.2353164,0.0465641467 35.6527716,0.0465641467 Z M35.6527716,32.4554496 L6.48730121,32.4554496 C4.21187321,32.4554496 2.34794054,30.5678061 2.34794054,28.2632998 L2.34794054,7.08713637 C2.34794054,4.78263007 4.50859224,2.42444788 6.78402025,2.42444788 L20.6115849,2.42444788 C20.9247937,2.49492155 31.8048862,2.42444788 34.8333333,2.42444788 C37.8617805,2.42444788 39.7918959,4.3442831 39.7918959,8.16105498 C39.7918959,10.7055696 39.7918959,17.4063179 39.7918959,28.2632998 C39.7676659,30.5678061 37.9280224,32.4554496 35.6527716,32.4554496 Z" id="Fill-1" fill="url(#linearGradient-8)" fill-rule="nonzero"></path>
                                    </g>
                                    <path d="M8.41836735,6.28240719 C8.41836735,7.24017259 7.6837618,7.98170731 6.73465651,7.98170731 C5.78555122,7.98170731 5.05102041,7.24017259 5.05102041,6.28240719 C5.05102041,5.32486806 5.78555122,4.58333333 6.73465651,4.58333333 C7.6837618,4.58333333 8.41836735,5.3558659 8.41836735,6.28240719 M14.3112245,6.28240719 C14.3112245,5.32486806 13.5766774,4.58333333 12.627551,4.58333333 C11.6787237,4.58333333 10.9438775,5.32486806 10.9438775,6.28240719 C10.9438775,7.24017259 11.6787237,7.98170731 12.627551,7.98170731 C13.5766774,7.98170731 14.3112245,7.20925018 14.3112245,6.28240719 M20.2040816,6.28240719 C20.2040816,5.32486806 19.4695508,4.58333333 18.5203708,4.58333333 C17.5715644,4.58333333 16.8367347,5.32486806 16.8367347,6.28240719 C16.8367347,7.24017259 17.5715644,7.98170731 18.5203708,7.98170731 C19.4695508,7.98170731 20.2040816,7.20925018 20.2040816,6.28240719" id="Fill-4" stroke="none" fill="url(#linearGradient-9)" fill-rule="evenodd"></path>
                                    <path d="M6.41666667,10.5416667 C5.65727514,10.5416667 5.04166667,11.1572752 5.04166667,11.9166667 L5.04166667,26.5833333 C5.04166667,28.3552469 6.47808643,29.7916667 8.25,29.7916667 L33.9166667,29.7916667 C35.6885802,29.7916667 37.125,28.3552469 37.125,26.5833333 L37.125,11.9166667 C37.125,11.1572752 36.5093915,10.5416667 35.75,10.5416667 L6.41666667,10.5416667 Z" id="Rectangle-2" stroke="#BAD1F3" stroke-width="0.916666667" fill="none"></path>
                                    <g id="购物车-copy-3" stroke="none" stroke-width="1" fill="none" fill-rule="evenodd" transform="translate(12.833333, 11.916667)">
                                        <path d="M3.48004128,4.12719322 L4.14935786,9.39936586 C8.50272855,9.05608988 10.9141091,8.85729675 11.3834994,8.80298647 C12.0875849,8.72152105 12.397225,8.58978084 12.5048715,8.05453035 C12.5731598,7.71498083 12.7699384,6.51317036 13.0952074,4.44909899 L13.0950907,4.4490806 C13.1187227,4.29911815 13.0163116,4.15839205 12.8663492,4.13476004 C12.8510159,4.13234373 12.8355055,4.13123056 12.8199843,4.13143245 L10.2607053,4.16472371 C9.77789624,5.12457833 9.23905831,5.60450565 8.64419138,5.60450565 C8.04932447,5.60450565 7.46119322,5.12457833 6.87979761,4.16472371 L3.48004128,4.12719322 Z" id="Path-10" fill="#BBD2F4" fill-rule="nonzero" opacity="0.397670201"></path>
                                        <path d="M13.1580912,12.2110531 L5.08484811,12.2110531 C4.39026616,12.2110531 3.96366842,11.8160877 3.81691838,11.0361432 L2.78340731,3.15106752 L2.77107126,3.00548602 C2.70265767,2.17375916 2.59953099,0.916666667 0.460973305,0.916666667 C0.206371444,0.916666667 0,1.12447526 0,1.38058456 C0,1.63681275 0.20637146,1.84462132 0.460973305,1.84462132 C1.75047002,1.84462132 1.7867019,2.28404919 1.85221288,3.08197914 L1.86721527,3.25357917 L2.90454022,11.1699043 L2.90811784,11.1937998 C3.13237741,12.4119155 3.94589843,13.1388889 5.08484811,13.1388889 L13.1580743,13.1388889 C13.4126931,13.1388889 13.6190477,12.9315389 13.6190477,12.674988 C13.6190477,12.4190995 13.4127099,12.2110531 13.1580912,12.2110531 Z" id="Shape" fill="#436EB4" fill-rule="nonzero"></path>
                                        <path d="M2.45675828,2.66207259 L5.60372606,2.66207259 C5.85685657,2.66207259 6.06205939,2.86727541 6.06205939,3.12040592 L6.06205939,3.12040592 C6.06205939,3.37353643 5.85685657,3.57873926 5.60372606,3.57873926 L2.45675828,3.57873926 L2.45675828,2.66207259 Z" id="Rectangle" fill="#436EB4" fill-rule="nonzero"></path>
                                        <path d="M9.24765132,5.04339369 L9.81759886,4.38546514 C10.0496351,4.11761019 10.454877,4.08857341 10.7227321,4.32060968 C10.990587,4.55264596 11.0196238,4.95788786 10.7875875,5.22574279 L9.09559346,7.17892456 C8.84185298,7.47183413 8.38835686,7.47469406 8.13094232,7.18500803 L6.39534811,5.23182627 C6.15995204,4.96691911 6.18387549,4.56134322 6.44878264,4.32594715 C6.71368979,4.09055108 7.11926569,4.11447453 7.35466176,4.37938168 L7.96431798,5.06546913 L7.96431798,1.375 C7.96431798,1.02061728 8.25160193,0.733333333 8.60598465,0.733333333 C8.96036736,0.733333333 9.24765132,1.02061729 9.24765132,1.375 L9.24765132,5.04339369 Z" id="Combined-Shape" fill="#1C68D9" fill-rule="nonzero"></path>
                                        <path d="M5.05185185,13.9537037 C4.60186252,13.9537037 4.23703704,14.3184416 4.23703704,14.7683441 C4.23703704,15.2184145 4.60186252,15.5833333 5.05185185,15.5833333 C5.50182826,15.5833333 5.86666667,15.2184403 5.86666667,14.7683441 C5.86666667,14.3184416 5.5018412,13.9537037 5.05185185,13.9537037 Z" id="Shape" stroke="#1C68D9" stroke-width="0.55" fill-opacity="0.3" fill="#1C68D9"></path>
                                        <path d="M11.8962963,13.9537037 C11.4463069,13.9537037 11.0814815,14.3184416 11.0814815,14.7683441 C11.0814815,15.2184145 11.4463069,15.5833333 11.8962963,15.5833333 C12.3462727,15.5833333 12.7111111,15.2184403 12.7111111,14.7683441 C12.7111111,14.3184416 12.3462856,13.9537037 11.8962963,13.9537037 Z" id="Shape-Copy" stroke="#1C68D9" stroke-width="0.55" fill-opacity="0.3" fill="#1C68D9"></path>
                                        <path d="M11.5133357,3.78992875 C11.1336399,3.78992875 10.8258357,3.48212452 10.8258357,3.10242875 C10.8258357,2.72273299 11.1336399,2.41492875 11.5133357,2.41492875 L13.1404348,2.41542198 C13.8601843,2.44270034 14.3924736,2.64476823 14.6806026,3.11546202 C14.9250628,3.51481767 14.9652925,4.02838762 14.8580399,4.64931089 C14.5315174,6.81293696 14.3202271,8.08336722 14.2131199,8.51454879 C14.0313135,9.24644736 13.8128854,9.62118171 13.3192349,10.0208897 C12.9283834,10.3373614 12.4957428,10.4433848 11.7440669,10.5150043 C11.6474705,10.5240117 11.6474705,10.5240117 11.554312,10.5323567 C11.4749806,10.5394948 11.4749806,10.5394948 11.3989152,10.5466536 C11.0176376,10.5832657 8.47445216,10.7797047 3.73246093,11.1389399 C3.35385003,11.167622 3.02367381,10.8839487 2.9949917,10.5053378 C2.96630958,10.126727 3.2499829,9.79655071 3.6285938,9.7678686 C8.34251,9.41076029 10.9011066,9.21313084 11.2674856,9.17794938 C11.3501483,9.17017041 11.3501483,9.17017041 11.4313427,9.16286645 C11.5237986,9.15458213 11.5237986,9.15458213 11.6136478,9.14620339 C12.098831,9.09997524 12.3465177,9.03927686 12.4539747,8.95226913 C12.6990354,8.75384391 12.7650047,8.64066728 12.8786743,8.18306732 C12.9704823,7.81347575 13.1807523,6.5491799 13.5007416,4.42986255 C13.5589595,4.09233348 13.5786001,3.944432 13.5007416,3.86528523 C13.4228831,3.78613847 13.3952912,3.80106815 13.1143974,3.78992875 L11.5133357,3.78992875 Z" id="Path-5" fill="#1C68D9" fill-rule="nonzero"></path>
                                        <path d="M5.39934,2.39536727 C5.77903576,2.39536727 6.08684,2.7031715 6.08684,3.08286727 C6.08684,3.46256303 5.77903576,3.77036727 5.39934,3.77036727 L2.77755297,3.77036727 C2.39785721,3.77036727 2.09005297,3.46256303 2.09005297,3.08286727 C2.09005297,2.7031715 2.39785721,2.39536727 2.77755297,2.39536727 L5.39934,2.39536727 Z" id="Path-8" fill="#1C68D9" fill-rule="nonzero"></path>
                                        <path d="M0.454569995,1.36888811 C1.1649811,1.38507765 1.64961323,1.52100695 1.90846639,1.77667602 C2.29674613,2.16017962 2.29674613,2.76742168 2.35426158,3.16148661 C2.39260521,3.42419655 2.73054492,6.08928087 3.3680807,11.1567396 C3.49418865,11.7436886 3.75333331,12.1582259 4.14551468,12.4003514 C4.73378674,12.7635396 5.14173576,12.6593391 5.5,12.6593391 C5.73884283,12.6593391 8.29075295,12.6593391 13.1557303,12.6593391" id="Path-9" stroke="#1C68D9" stroke-width="1.375" stroke-linecap="round"></path>
                                    </g>
                                </g>
                            </g>
                        </g>
                        <rect id="矩形备份" fill-opacity="0.5" fill="url(#linearGradient-10)" transform="translate(46.000000, 73.000000) rotate(-330.000000) translate(-46.000000, -73.000000) " x="44" y="65" width="4" height="16" rx="2"></rect>
                        <rect id="矩形备份-2" fill-opacity="0.5" fill="url(#linearGradient-10)" transform="translate(16.000000, 8.000000) rotate(-330.000000) translate(-16.000000, -8.000000) " x="14" y="0" width="4" height="16" rx="2"></rect>
                        <path d="M64.625,12.5 L64.6317569,12.5038611 C65.1686566,12.8106609 65.5,13.3816252 65.5,14 C65.5,14.6183748 65.1686566,15.1893391 64.6317569,15.4961389 L64.625,15.5 C64.0828059,15.8098252 63.4171941,15.8098252 62.875,15.5 L62.8682431,15.4961389 C62.3313434,15.1893391 62,14.6183748 62,14 C62,13.3816252 62.3313434,12.8106609 62.8682431,12.5038611 L62.875,12.5 C63.4171941,12.1901748 64.0828059,12.1901748 64.625,12.5 Z" id="多边形备份-2" fill="#2F88FF" opacity="0.441266741" transform="translate(63.750000, 14.000000) rotate(-360.000000) translate(-63.750000, -14.000000) "></path>
                    </g>
                </g>
            </g>
        </g>
    </g>
</svg>