<?xml version="1.0" encoding="UTF-8"?>
<svg width="120px" height="120px" viewBox="0 0 120 120" version="1.1" xmlns="http://www.w3.org/2000/svg" xmlns:xlink="http://www.w3.org/1999/xlink">
    <!-- Generator: Sketch 55.2 (78181) - https://sketchapp.com -->
    <title>编组 6备份 3</title>
    <desc>Created with Sketch.</desc>
    <defs>
        <polygon id="path-1" points="3.49720253e-14 0 120 0 120 120 3.49720253e-14 120"></polygon>
        <linearGradient x1="50%" y1="0%" x2="50%" y2="100%" id="linearGradient-3">
            <stop stop-color="#FFC53D" offset="0%"></stop>
            <stop stop-color="#F78C1C" offset="100%"></stop>
        </linearGradient>
        <linearGradient x1="50%" y1="0%" x2="50%" y2="89.4341484%" id="linearGradient-4">
            <stop stop-color="#2F88FF" stop-opacity="0.3" offset="0%"></stop>
            <stop stop-color="#2F88FF" stop-opacity="0.03" offset="100%"></stop>
        </linearGradient>
        <linearGradient x1="50%" y1="0%" x2="50%" y2="100%" id="linearGradient-5">
            <stop stop-color="#2F88FF" stop-opacity="0.3" offset="0%"></stop>
            <stop stop-color="#2F88FF" stop-opacity="0.05" offset="100%"></stop>
        </linearGradient>
        <linearGradient x1="50%" y1="0%" x2="50%" y2="89.4341484%" id="linearGradient-6">
            <stop stop-color="#2F88FF" stop-opacity="0.3" offset="0%"></stop>
            <stop stop-color="#2F88FF" stop-opacity="0.03" offset="100%"></stop>
        </linearGradient>
        <rect id="path-7" x="0" y="0" width="46" height="46"></rect>
        <linearGradient x1="23.5278773%" y1="-1.87576196%" x2="100%" y2="100.405655%" id="linearGradient-9">
            <stop stop-color="#2F88FF" offset="0%"></stop>
            <stop stop-color="#0E4AB3" offset="100%"></stop>
        </linearGradient>
        <linearGradient x1="0%" y1="47.4851529%" x2="141.053185%" y2="54.2691192%" id="linearGradient-10">
            <stop stop-color="#2F88FF" offset="0%"></stop>
            <stop stop-color="#0E4AB3" offset="100%"></stop>
        </linearGradient>
    </defs>
    <g id="创建广告组" stroke="none" stroke-width="1" fill="none" fill-rule="evenodd">
        <g id="选择广告组-默认态备份-6" transform="translate(-654.000000, -236.000000)">
            <g id="编组-6备份-3" transform="translate(654.000000, 236.000000)">
                <mask id="mask-2" fill="white">
                    <use xlink:href="#path-1"></use>
                </mask>
                <use id="蒙版" fill-opacity="0.01" fill="#FFFFFF" xlink:href="#path-1"></use>
                <g id="编组-6备份-2" mask="url(#mask-2)">
                    <g transform="translate(29.000000, 20.000000)">
                        <path d="M3,56 C4.65685425,56 6,54.6568542 6,53 C6,51.3431458 4.65685425,50 3,50 C1.34314575,50 0,51.3431458 0,53 C0,54.6568542 1.34314575,56 3,56 Z M3,55 C1.8954305,55 1,54.1045695 1,53 C1,51.8954305 1.8954305,51 3,51 C4.1045695,51 5,51.8954305 5,53 C5,54.1045695 4.1045695,55 3,55 Z" id="椭圆形" fill="url(#linearGradient-3)" opacity="0.6"></path>
                        <path d="M14.875,73.875 L14.875,72.625 C14.875,72.279822 15.154822,72 15.5,72 C15.845178,72 16.125,72.279822 16.125,72.625 L16.125,73.875 L17.375,73.875 C17.720178,73.875 18,74.154822 18,74.5 C18,74.845178 17.720178,75.125 17.375,75.125 L16.125,75.125 L16.125,76.375 C16.125,76.720178 15.845178,77 15.5,77 C15.154822,77 14.875,76.720178 14.875,76.375 L14.875,75.125 L13.625,75.125 C13.279822,75.125 13,74.845178 13,74.5 C13,74.154822 13.279822,73.875 13.625,73.875 L14.875,73.875 Z" id="形状结合" fill-opacity="0.7" fill="url(#linearGradient-4)"></path>
                        <rect id="矩形" fill="url(#linearGradient-5)" transform="translate(38.000000, 39.735572) rotate(-330.000000) translate(-38.000000, -39.735572) " x="22" y="10.7355716" width="32" height="58" rx="16"></rect>
                        <rect id="矩形备份" fill-opacity="0.5" fill="url(#linearGradient-6)" transform="translate(46.000000, 74.000000) rotate(-330.000000) translate(-46.000000, -74.000000) " x="44" y="66" width="4" height="16" rx="2"></rect>
                        <rect id="矩形备份-2" fill-opacity="0.5" fill="url(#linearGradient-6)" transform="translate(21.000000, 8.000000) rotate(-330.000000) translate(-21.000000, -8.000000) " x="19" y="0" width="4" height="16" rx="2"></rect>
                        <path d="M62.625,14.5 L62.6317569,14.5038611 C63.1686566,14.8106609 63.5,15.3816252 63.5,16 C63.5,16.6183748 63.1686566,17.1893391 62.6317569,17.4961389 L62.625,17.5 C62.0828059,17.8098252 61.4171941,17.8098252 60.875,17.5 L60.8682431,17.4961389 C60.3313434,17.1893391 60,16.6183748 60,16 C60,15.3816252 60.3313434,14.8106609 60.8682431,14.5038611 L60.875,14.5 C61.4171941,14.1901748 62.0828059,14.1901748 62.625,14.5 Z" id="多边形备份-2" fill="#2F88FF" opacity="0.441266741" transform="translate(61.750000, 16.000000) rotate(-360.000000) translate(-61.750000, -16.000000) "></path>
                        <g id="网页-(1)-copy-4备份-3" stroke-width="1" fill="none" transform="translate(7.000000, 16.000000)">
                            <mask id="mask-8" fill="white">
                                <use xlink:href="#path-7"></use>
                            </mask>
                            <use id="蒙版" fill="#FFFFFF" opacity="0" xlink:href="#path-7"></use>
                            <path d="M10.0625,5.75 L35.9375,5.75 C39.6424102,5.75 42.6458333,8.75342314 42.6458333,12.4583333 L42.6458333,33.5416667 C42.6458333,37.2465769 39.6424102,40.25 35.9375,40.25 L10.0625,40.25 C6.3575898,40.25 3.35416667,37.2465769 3.35416667,33.5416667 L3.35416667,12.4583333 C3.35416667,8.75342314 6.3575898,5.75 10.0625,5.75 Z" id="矩形" fill="#FFFFFF" mask="url(#mask-8)"></path>
                            <g id="网页-(1)-copy-4备份-2" mask="url(#mask-8)">
                                <g transform="translate(1.916667, 4.791667)">
                                    <g id="Group-3" stroke="none" stroke-width="1" fill="none" fill-rule="evenodd">
                                        <path d="M35.3566855,0.0486806987 L6.78217855,0.0486806987 C3.06212213,0.0486806987 0,3.14985395 0,6.91735209 L0,29.5479953 C0,33.3411478 3.03679083,36.4166667 6.78217855,36.4166667 L35.3566855,36.4166667 C39.0767419,36.4166667 42.1386787,33.3154934 42.1386787,29.5479953 L42.1386787,6.91735209 C42.1386787,3.1241996 39.1020732,0.0486806987 35.3566855,0.0486806987 Z M35.9227337,34.5 L6.2441801,34.5 C3.86532354,34.5 1.91666667,32.5265546 1.91666667,30.117298 L1.91666667,6.8019434 C1.91666667,4.39268681 4.1755298,1.92731452 6.55438636,1.92731452 L21.5484751,1.92731452 C22.2317407,2.08105293 24.4120882,1.92731452 24.9213269,4.76031494 C25.5411091,8.20829166 28.5856971,7.92467649 28.5856971,7.92467649 L35.85125,7.92467649 C38.2806125,7.92467649 40.25,9.89406395 40.25,12.3234265 L40.25,30.117298 C40.2246687,32.5265546 38.3014049,34.5 35.9227337,34.5 Z" id="Fill-1" fill="url(#linearGradient-9)" fill-rule="nonzero"></path>
                                    </g>
                                    <path d="M8.80102041,7.52630449 C8.80102041,8.52760468 8.0330237,9.30284553 7.04077726,9.30284553 C6.04853082,9.30284553 5.28061224,8.52760468 5.28061224,7.52630449 C5.28061224,6.52524085 6.04853082,5.75 7.04077726,5.75 C8.0330237,5.75 8.80102041,6.55764768 8.80102041,7.52630449 M14.9617347,7.52630449 C14.9617347,6.52524085 14.1937991,5.75 13.2015306,5.75 C12.2095747,5.75 11.4413265,6.52524085 11.4413265,7.52630449 C11.4413265,8.52760468 12.2095747,9.30284553 13.2015306,9.30284553 C14.1937991,9.30284553 14.9617347,8.4952767 14.9617347,7.52630449 M21.122449,7.52630449 C21.122449,6.52524085 20.3545304,5.75 19.3622058,5.75 C18.3702719,5.75 17.6020408,6.52524085 17.6020408,7.52630449 C17.6020408,8.52760468 18.3702719,9.30284553 19.3622058,9.30284553 C20.3545304,9.30284553 21.122449,8.4952767 21.122449,7.52630449" id="Fill-4" stroke="none" fill="url(#linearGradient-10)" fill-rule="nonzero"></path>
                                    <path d="M6.70833333,12.9676819 C5.91442401,12.9676819 5.27083333,13.6112726 5.27083333,14.4051819 L5.27083333,27.7916667 C5.27083333,29.6441218 6.7725449,31.1458333 8.625,31.1458333 L33.5416667,31.1458333 C35.3941218,31.1458333 36.8958333,29.6441218 36.8958333,27.7916667 L36.8958333,14.4051819 C36.8958333,13.6112726 36.2522427,12.9676819 35.4583333,12.9676819 L6.70833333,12.9676819 Z" id="Rectangle-2" stroke="#1C68D9" stroke-width="0.958333333" fill="#FFFFFF" fill-rule="evenodd" opacity="0.251851"></path>
                                </g>
                            </g>
                        </g>
                    </g>
                </g>
            </g>
        </g>
    </g>
</svg>